<svg width="24" height="30" viewBox="0 0 24 30" fill="none" xmlns="http://www.w3.org/2000/svg">
<circle cx="12" cy="16" r="12" fill="white"/>
<path d="M17.4529 5.31029C18.8567 6.02637 20.1057 7.01193 21.1286 8.2107C22.1514 9.40947 22.9282 10.798 23.4145 12.2969C23.9007 13.7959 24.087 15.376 23.9626 16.9469C23.8383 18.5178 23.4057 20.0489 22.6896 21.4527C21.9735 22.8565 20.988 24.1054 19.7892 25.1283C18.5904 26.1512 17.2019 26.928 15.703 27.4142C14.204 27.9005 12.624 28.0868 11.053 27.9624C9.48206 27.838 7.95099 27.4055 6.54722 26.6894L8.43541 22.9879C9.35309 23.456 10.354 23.7388 11.381 23.8201C12.4079 23.9014 13.4408 23.7796 14.4208 23.4617C15.4007 23.1438 16.3084 22.636 17.092 21.9674C17.8757 21.2987 18.52 20.4822 18.9881 19.5645C19.4562 18.6468 19.739 17.6459 19.8203 16.619C19.9016 15.592 19.7798 14.5591 19.4619 13.5792C19.1441 12.5993 18.6363 11.6916 17.9676 10.9079C17.2989 10.1242 16.4824 9.47994 15.5647 9.01182L17.4529 5.31029Z" fill="#F5F5F5"/>
<circle cx="12" cy="16" r="8" fill="#E6E6E6"/>
</svg>
