<svg width="48" height="48" viewBox="0 0 48 48" fill="none" xmlns="http://www.w3.org/2000/svg">
<circle cx="24" cy="24" r="24" fill="black"/>
<path d="M13.8395 37L17.8889 29.9877L21.9383 23L25.963 15.9877L26.6296 14.8765L26.9259 15.9877L28.1605 20.6049L26.7778 23L22.7284 29.9877L18.7037 37H23.5432L27.5926 29.9877L29.6914 26.358L30.679 29.9877L32.5556 37H36.9012L35.0247 29.9877L33.1481 23L32.6543 21.1975L35.6667 15.9877H31.2716L31.1235 15.4691L29.5926 9.74074L29.3951 9H25.1728L25.0741 9.14815L21.1235 15.9877L17.0741 23L13.0494 29.9877L9 37H13.8395Z" fill="white"/>
</svg>
