<svg width="48" height="48" viewBox="0 0 48 48" fill="none" xmlns="http://www.w3.org/2000/svg">
<circle cx="24" cy="24" r="24" fill="#186A54"/>
<path d="M46 24C46 36.1503 36.1503 46 24 46C11.8497 46 2 36.1503 2 24C2 11.8497 11.8497 2 24 2C36.1503 2 46 11.8497 46 24Z" fill="#186A54"/>
<path d="M29.1347 19.7928C29.004 18.7152 28.4536 17.876 27.4833 17.2755C26.5223 16.675 25.2721 16.3747 23.7326 16.3747C22.6504 16.3747 21.722 16.5187 20.9476 16.8066C20.1733 17.0945 19.5808 17.4853 19.1703 17.9789C18.7598 18.4725 18.5498 19.036 18.5405 19.6694C18.5405 20.1959 18.6758 20.6525 18.9464 21.0392C19.2263 21.4258 19.6041 21.7549 20.08 22.0263C20.5558 22.2896 21.0829 22.5117 21.6614 22.6927C22.2398 22.8737 22.823 23.0259 23.4107 23.1493L26.0978 23.7416C27.18 23.9637 28.2203 24.264 29.2186 24.6424C30.2263 25.0208 31.1266 25.4979 31.9197 26.0738C32.722 26.6497 33.3565 27.3448 33.823 28.1592C34.2895 28.9737 34.5227 29.9279 34.5227 31.0221C34.5227 32.5028 34.0935 33.8068 33.2352 34.9338C32.3768 36.0526 31.1359 36.9287 29.5125 37.5622C27.8984 38.1874 25.9438 38.5 23.6487 38.5C21.4188 38.5 19.4828 38.1956 17.8408 37.5869C16.208 36.9781 14.9298 36.0896 14.0062 34.9215C13.0918 33.7533 12.5973 32.3301 12.5227 30.6519H17.6308C17.7055 31.5321 18.0134 32.2643 18.5545 32.8484C19.0956 33.4324 19.8001 33.8685 20.6677 34.1564C21.5448 34.4443 22.5244 34.5883 23.6067 34.5883C24.7356 34.5883 25.7246 34.4402 26.5736 34.144C27.4319 33.8397 28.1037 33.4201 28.5889 32.8854C29.074 32.3424 29.3213 31.709 29.3306 30.985C29.3213 30.3269 29.102 29.784 28.6728 29.3562C28.2437 28.9202 27.6419 28.5582 26.8675 28.2703C26.1024 27.9741 25.2068 27.7109 24.1805 27.4805L20.9197 26.7402C18.5592 26.2054 16.6932 25.3951 15.3217 24.3092C13.9595 23.2151 13.2784 21.7631 13.2784 19.9533C13.2784 18.4642 13.7356 17.1603 14.6499 16.0415C15.5736 14.9227 16.8285 14.0548 18.4146 13.4378C20.0007 12.8126 21.7967 12.5 23.8026 12.5C25.8365 12.5 27.6185 12.8126 29.1487 13.4378C30.6881 14.0548 31.8963 14.9145 32.7733 16.0168C33.6504 17.111 34.1029 18.3696 34.1308 19.7928H29.1347Z" fill="white"/>
<path fill-rule="evenodd" clip-rule="evenodd" d="M28.6916 20.2928L28.6383 19.853C28.527 18.9348 28.069 18.226 27.2202 17.7007L27.2183 17.6995C26.3605 17.1634 25.2109 16.8747 23.7327 16.8747C22.6924 16.8747 21.8263 17.0134 21.1219 17.2753C20.4064 17.5413 19.8956 17.8888 19.5547 18.2986C19.217 18.7046 19.0489 19.1571 19.0405 19.6731C19.0412 20.1061 19.1508 20.4577 19.3538 20.7493C19.5855 21.0682 19.9047 21.3503 20.325 21.5905C20.7674 21.835 21.262 22.0438 21.8107 22.2155C22.374 22.3917 22.9416 22.5399 23.5135 22.6599L23.5184 22.661L26.2019 23.2525C27.3078 23.4797 28.3723 23.7869 29.395 24.1745C30.4399 24.567 31.3801 25.0642 32.2124 25.6685C33.0693 26.2837 33.7531 27.0313 34.2569 27.9107C34.7734 28.8125 35.0227 29.8553 35.0227 31.0221C35.0227 32.607 34.5608 34.0185 33.633 35.2367L33.6319 35.2381C32.7062 36.4447 31.3828 37.3691 29.6943 38.028L29.6932 38.0284C28.0061 38.6819 25.9866 39 23.6487 39C21.375 39 19.3776 38.6898 17.667 38.0557C15.9634 37.4205 14.6034 36.4828 13.614 35.2316L13.6125 35.2296C12.6256 33.9689 12.1019 32.442 12.0232 30.6741L12 30.1519H18.0903L18.1291 30.6096C18.1954 31.3917 18.4643 32.0152 18.9213 32.5086C19.397 33.0219 20.0251 33.4162 20.8243 33.6815C21.643 33.9502 22.5687 34.0883 23.6067 34.0883C24.6926 34.0883 25.6233 33.9458 26.4076 33.6724C27.2067 33.3889 27.8006 33.0096 28.2173 32.5508C28.6202 32.0993 28.8214 31.5843 28.8306 30.9854C28.8216 30.4486 28.6469 30.0363 28.3199 29.7103L28.3165 29.7069C27.9534 29.338 27.4218 29.0098 26.6933 28.7389L26.687 28.7366C25.9504 28.4515 25.0795 28.1948 24.071 27.9684L24.0698 27.9681L20.8092 27.2278C18.4021 26.6825 16.4595 25.8478 15.0113 24.7012L15.0086 24.699C13.5235 23.5061 12.7785 21.9083 12.7785 19.9533C12.7785 18.3527 13.2731 16.9362 14.2628 15.7251L14.2644 15.7232C15.2509 14.5282 16.5809 13.6148 18.2323 12.9722C19.8858 12.3206 21.7452 12 23.8026 12C25.8862 12 27.7343 12.3201 29.3362 12.9743C30.9407 13.6176 32.2244 14.5241 33.164 15.7047C33.1642 15.705 33.1644 15.7053 33.1646 15.7056L32.7735 16.0167L33.164 15.7047C33.1641 15.7049 33.1638 15.7045 33.164 15.7047C34.1108 16.8862 34.6007 18.2516 34.6308 19.783L34.6408 20.2928H28.6916ZM18.4146 13.4378C16.8285 14.0548 15.5736 14.9227 14.65 16.0415C13.7356 17.1603 13.2785 18.4642 13.2785 19.9533C13.2785 21.7631 13.9595 23.2151 15.3217 24.3092C16.6932 25.3951 18.5592 26.2054 20.9197 26.7402L24.1805 27.4805C25.2068 27.7109 26.1025 27.9741 26.8675 28.2703C27.6419 28.5582 28.2437 28.9202 28.6729 29.3562C29.102 29.784 29.3213 30.3269 29.3306 30.985C29.3213 31.709 29.074 32.3424 28.5889 32.8854C28.1037 33.4201 27.432 33.8397 26.5736 34.144C25.7246 34.4402 24.7356 34.5883 23.6067 34.5883C22.5244 34.5883 21.5448 34.4443 20.6678 34.1564C19.8001 33.8685 19.0957 33.4324 18.5545 32.8484C18.0134 32.2643 17.7055 31.5321 17.6309 30.6519H12.5227C12.5303 30.8211 12.5421 30.9878 12.5581 31.1519C12.7014 32.6146 13.1841 33.8711 14.0062 34.9215C14.9299 36.0896 16.2081 36.9781 17.8408 37.5869C19.4829 38.1956 21.4188 38.5 23.6487 38.5C25.9439 38.5 27.8985 38.1874 29.5126 37.5622C31.136 36.9287 32.3768 36.0526 33.2352 34.9338C34.0936 33.8068 34.5227 32.5028 34.5227 31.0221C34.5227 29.9279 34.2895 28.9737 33.823 28.1592C33.3565 27.3448 32.7221 26.6497 31.9197 26.0738C31.1266 25.4979 30.2263 25.0208 29.2187 24.6424C28.2204 24.264 27.1801 23.9637 26.0978 23.7416L23.4108 23.1493C22.823 23.0259 22.2399 22.8737 21.6614 22.6927C21.083 22.5117 20.5558 22.2896 20.08 22.0263C19.6042 21.7549 19.2263 21.4258 18.9464 21.0392C18.6758 20.6525 18.5405 20.1959 18.5405 19.6694C18.5499 19.036 18.7598 18.4725 19.1703 17.9789C19.5808 17.4853 20.1733 17.0945 20.9477 16.8066C21.7221 16.5187 22.6504 16.3747 23.7327 16.3747C25.2721 16.3747 26.5223 16.675 27.4833 17.2755C28.4536 17.876 29.0041 18.7152 29.1347 19.7928H34.1309C34.1276 19.6238 34.1182 19.4572 34.1029 19.2928C33.9894 18.0731 33.5464 16.981 32.7735 16.0167C31.8965 14.9144 30.6881 14.0548 29.1487 13.4378C27.6186 12.8126 25.8366 12.5 23.8026 12.5C21.7967 12.5 20.0007 12.8126 18.4146 13.4378Z" fill="white"/>
<rect x="21.5" y="8" width="2" height="33" fill="white"/>
<rect x="24.5" y="8" width="2" height="33" fill="white"/>
<rect x="15" y="7" width="18" height="2" fill="white"/>
<path fill-rule="evenodd" clip-rule="evenodd" d="M44.9473 25.5C44.1782 36.3979 35.0937 45 24 45C12.9064 45 3.82191 36.3979 3.05279 25.5H2.05038C2.82138 36.9507 12.3539 46 24 46C35.6462 46 45.1787 36.9507 45.9497 25.5H44.9473ZM3.00588 23.5C3.27147 12.133 12.5692 3 24 3C35.4309 3 44.7286 12.133 44.9942 23.5H45.9945C45.7287 11.5807 35.9832 2 24 2C12.0169 2 2.27142 11.5807 2.00562 23.5H3.00588Z" fill="white"/>
</svg>
